<svg xmlns="http://www.w3.org/2000/svg" viewBox="-40 -40 980 3740" width="980" height="3740"><rect x="-40" y="-40" width="980" height="3740" fill="#020617" /><rect x="0" y="0" width="900" height="440" fill="#1f2937" /><text x="12" y="22" fill="#94a3b8" font-family="monospace" font-size="13">START</text><rect x="0" y="440" width="900" height="660" fill="#0f2f22" /><text x="12" y="462" fill="#94a3b8" font-family="monospace" font-size="13">CANOPY DESCENT</text><rect x="0" y="1100" width="900" height="1160" fill="#0b2b33" /><text x="12" y="1122" fill="#94a3b8" font-family="monospace" font-size="13">EMERALD OXBOW</text><rect x="0" y="2260" width="900" height="1100" fill="#2b2410" /><text x="12" y="2282" fill="#94a3b8" font-family="monospace" font-size="13">ROOTBOUND SPRINT</text><rect x="0" y="3360" width="900" height="300" fill="#1f2937" /><text x="12" y="3382" fill="#94a3b8" font-family="monospace" font-size="13">FINISH</text><line x1="0" y1="440" x2="400" y2="592" stroke="#cbd5e1" stroke-width="26" stroke-linecap="round" opacity="1" /><line x1="900" y1="440" x2="520" y2="600" stroke="#cbd5e1" stroke-width="26" stroke-linecap="round" opacity="1" /><rect x="268" y="603" width="34" height="34" fill="none" stroke="#facc15" stroke-width="2" /><rect x="598" y="603" width="34" height="34" fill="none" stroke="#facc15" stroke-width="2" /><line x1="450" y1="642" x2="200" y2="770" stroke="#cbd5e1" stroke-width="26" stroke-linecap="round" opacity="1" /><line x1="140" y1="960" x2="420" y2="1090" stroke="#cbd5e1" stroke-width="26" stroke-linecap="round" opacity="1" /><line x1="276.6135332117636" y1="620.6755922806035" x2="118.88206337663598" y2="701.4341048361888" stroke="#6b7280" stroke-width="26" stroke-linecap="round" opacity="0.85" /><line x1="118.88206337663598" y1="701.4341048361888" x2="20.613470257869935" y2="1012.6179830456144" stroke="#7dd3fc" stroke-width="26" stroke-linecap="round" opacity="0.9" /><line x1="20.613470257869935" y1="1012.6179830456144" x2="323.8266359451908" y2="1153.3955242575848" stroke="#6b7280" stroke-width="26" stroke-linecap="round" opacity="0.85" /><line x1="259.38652974213005" y1="907.3820169543856" x2="268.7338037698142" y2="877.782315866719" stroke="#6b7280" stroke-width="26" stroke-linecap="round" opacity="0.85" /><line x1="409.68323948599664" y1="977.1626321926094" x2="259.38652974213005" y2="907.3820169543856" stroke="#6b7280" stroke-width="26" stroke-linecap="round" opacity="0.85" /><line x1="175" y1="840" x2="139.8" y2="944.5" stroke="#eab308" stroke-width="12" stroke-linecap="round" opacity="1" /><text x="139.8" y="958.5" fill="#facc15" font-family="monospace" font-size="13">BOOST</text><circle cx="235" cy="745" r="10" fill="#4ade80" /><text x="247" y="749" fill="#bbf7d0" font-family="monospace" font-size="13">AERO</text><circle cx="200" cy="995" r="10" fill="#fb923c" /><line x1="379.5" y1="744" x2="379.5" y2="830" stroke="#6b7280" stroke-width="26" stroke-linecap="round" opacity="0.85" /><line x1="379.5" y1="830" x2="379.5" y2="970" stroke="#6b7280" stroke-width="26" stroke-linecap="round" opacity="0.85" /><line x1="379.5" y1="970" x2="379.5" y2="1064.4" stroke="#6b7280" stroke-width="26" stroke-linecap="round" opacity="0.85" /><line x1="520.5" y1="970" x2="520.5" y2="895.3" stroke="#6b7280" stroke-width="26" stroke-linecap="round" opacity="0.85" /><line x1="520.5" y1="1037.7" x2="520.5" y2="970" stroke="#6b7280" stroke-width="26" stroke-linecap="round" opacity="0.85" /><rect x="400" y="838" width="100" height="44" fill="#b91c1c" opacity="0.85" /><text x="430" y="848" fill="#fecaca" font-family="monospace" font-size="13">CRUMBLE</text><line x1="450" y1="780" x2="550" y2="850" stroke="#cbd5e1" stroke-width="26" stroke-linecap="round" opacity="1" /><line x1="548" y1="958" x2="450" y2="1028" stroke="#cbd5e1" stroke-width="26" stroke-linecap="round" opacity="1" /><line x1="450" y1="642" x2="640" y2="700" stroke="#cbd5e1" stroke-width="26" stroke-linecap="round" opacity="1" /><line x1="640" y1="700" x2="730" y2="830" stroke="#cbd5e1" stroke-width="26" stroke-linecap="round" opacity="1" /><line x1="710" y1="920" x2="620" y2="980" stroke="#cbd5e1" stroke-width="26" stroke-linecap="round" opacity="1" /><line x1="620" y1="980" x2="480" y2="1090" stroke="#cbd5e1" stroke-width="26" stroke-linecap="round" opacity="1" /><line x1="819.3498387381275" y1="994.9277098019386" x2="850.0015371567486" y2="856.9950669181435" stroke="#6b7280" stroke-width="26" stroke-linecap="round" opacity="0.85" /><line x1="742.1801300055978" y1="1046.3741822902916" x2="819.3498387381275" y2="994.9277098019386" stroke="#6b7280" stroke-width="26" stroke-linecap="round" opacity="0.85" /><line x1="599.4959010431069" y1="850.2664611825068" x2="600.6501612618725" y2="845.0722901980614" stroke="#6b7280" stroke-width="26" stroke-linecap="round" opacity="0.85" /><line x1="600.6501612618725" y1="845.0722901980614" x2="568.5573700382755" y2="866.4674843471262" stroke="#6b7280" stroke-width="26" stroke-linecap="round" opacity="0.85" /><line x1="660" y1="925" x2="810" y2="925" stroke="#22c55e" stroke-width="14" stroke-linecap="round" opacity="1" /><text x="711" y="949" fill="#e2e8f0" font-family="monospace" font-size="13">NET t=1.2</text><line x1="620" y1="825" x2="690" y2="860" stroke="#cbd5e1" stroke-width="26" stroke-linecap="round" opacity="1" /><circle cx="645" cy="805" r="10" fill="#a855f7" /><line x1="645" y1="805" x2="570" y2="1015" stroke="#a855f7" stroke-width="2" stroke-dasharray="8 6" opacity="0.8" /><text x="657" y="797" fill="#d8b4fe" font-family="monospace" font-size="13">TUNNEL 650ms</text><line x1="80" y1="1150" x2="400" y2="1255" stroke="#cbd5e1" stroke-width="26" stroke-linecap="round" opacity="1" /><line x1="400" y1="1255" x2="700" y2="1380" stroke="#cbd5e1" stroke-width="26" stroke-linecap="round" opacity="1" /><line x1="74.31393457786768" y1="1251.2750587625374" x2="365.82549435302883" y2="1346.9272893137622" stroke="#6b7280" stroke-width="26" stroke-linecap="round" opacity="0.85" /><line x1="365.82549435302883" y1="1346.9272893137622" x2="626.0847043243278" y2="1455.3686268018034" stroke="#6b7280" stroke-width="26" stroke-linecap="round" opacity="0.85" /><line x1="434.1745056469715" y1="1163.072710686238" x2="135.9901594879004" y2="1065.2309721027927" stroke="#6b7280" stroke-width="26" stroke-linecap="round" opacity="0.85" /><line x1="700.6097382427024" y1="1274.087390934459" x2="434.1745056469715" y2="1163.072710686238" stroke="#6b7280" stroke-width="26" stroke-linecap="round" opacity="0.85" /><line x1="450" y1="1295" x2="540" y2="1295" stroke="#f97316" stroke-width="12" stroke-linecap="round" opacity="1" /><text x="465" y="1285" fill="#fdba74" font-family="monospace" font-size="13">JUMP STRIP</text><circle cx="330" cy="1222" r="10" fill="#4ade80" /><text x="342" y="1226" fill="#bbf7d0" font-family="monospace" font-size="13">JUMP</text><line x1="545" y1="1115" x2="874" y2="1105" stroke="#cbd5e1" stroke-width="26" stroke-linecap="round" opacity="1" /><line x1="670" y1="1272" x2="852" y2="1300" stroke="#cbd5e1" stroke-width="26" stroke-linecap="round" opacity="1" /><circle cx="795" cy="1250" r="10" fill="#a855f7" /><line x1="795" y1="1250" x2="180" y2="2300" stroke="#a855f7" stroke-width="2" stroke-dasharray="8 6" opacity="0.8" /><text x="807" y="1242" fill="#d8b4fe" font-family="monospace" font-size="13">TUNNEL 1700ms</text><line x1="680" y1="1372" x2="770" y2="1430" stroke="#cbd5e1" stroke-width="26" stroke-linecap="round" opacity="1" /><line x1="770" y1="1430" x2="790" y2="1530" stroke="#cbd5e1" stroke-width="26" stroke-linecap="round" opacity="1" /><line x1="790" y1="1530" x2="745" y2="1640" stroke="#cbd5e1" stroke-width="26" stroke-linecap="round" opacity="1" /><line x1="745" y1="1640" x2="640" y2="1740" stroke="#cbd5e1" stroke-width="26" stroke-linecap="round" opacity="1" /><line x1="651.7666228924752" y1="1440.6508808369877" x2="704.4784615899509" y2="1474.6207324420275" stroke="#6b7280" stroke-width="26" stroke-linecap="round" opacity="0.85" /><line x1="704.4784615899509" y1="1474.6207324420275" x2="714.1008057949979" y2="1522.7324534672623" stroke="#6b7280" stroke-width="26" stroke-linecap="round" opacity="0.85" /><line x1="714.1008057949979" y1="1522.7324534672623" x2="683.3475389453956" y2="1597.90710576629" stroke="#6b7280" stroke-width="26" stroke-linecap="round" opacity="0.85" /><line x1="683.3475389453956" y1="1597.90710576629" x2="601.8778030860461" y2="1675.497330394242" stroke="#6b7280" stroke-width="26" stroke-linecap="round" opacity="0.85" /><line x1="835.5215384100491" y1="1385.3792675579725" x2="740.0338002568371" y2="1323.8427251925693" stroke="#6b7280" stroke-width="26" stroke-linecap="round" opacity="0.85" /><line x1="865.8991942050021" y1="1537.2675465327377" x2="835.5215384100491" y2="1385.3792675579725" stroke="#6b7280" stroke-width="26" stroke-linecap="round" opacity="0.85" /><line x1="806.6524610546044" y1="1682.09289423371" x2="865.8991942050021" y2="1537.2675465327377" stroke="#6b7280" stroke-width="26" stroke-linecap="round" opacity="0.85" /><line x1="705.5177312161786" y1="1778.4116845560204" x2="806.6524610546044" y2="1682.09289423371" stroke="#6b7280" stroke-width="26" stroke-linecap="round" opacity="0.85" /><line x1="680" y1="1510" x2="604" y2="1534" stroke="#eab308" stroke-width="12" stroke-linecap="round" opacity="1" /><text x="604" y="1548" fill="#facc15" font-family="monospace" font-size="13">BOOST</text><line x1="615" y1="1692" x2="765" y2="1692" stroke="#22c55e" stroke-width="14" stroke-linecap="round" opacity="1" /><text x="666" y="1716" fill="#e2e8f0" font-family="monospace" font-size="13">NET t=1.35</text><rect x="280" y="1590" width="320" height="95" fill="#0e7490" opacity="0.65" /><text x="286" y="1608" fill="#e2e8f0" font-family="monospace" font-size="13">POOL (skim / wade)</text><line x1="265" y1="1605" x2="100" y2="1720" stroke="#cbd5e1" stroke-width="26" stroke-linecap="round" opacity="1" /><line x1="390" y1="1550" x2="485" y2="1575" stroke="#cbd5e1" stroke-width="26" stroke-linecap="round" opacity="1" /><line x1="390" y1="1550" x2="305" y2="1650" stroke="#cbd5e1" stroke-width="26" stroke-linecap="round" opacity="1" /><line x1="305" y1="1650" x2="115" y2="1730" stroke="#a16207" stroke-width="12" stroke-linecap="round" opacity="1" /><text x="299" y="1640" fill="#fbbf24" font-family="monospace" font-size="13">ROPE BRIDGE</text><line x1="100" y1="1750" x2="260" y2="1910" stroke="#cbd5e1" stroke-width="26" stroke-linecap="round" opacity="1" /><line x1="260" y1="1910" x2="620" y2="2080" stroke="#cbd5e1" stroke-width="26" stroke-linecap="round" opacity="1" /><line x1="620" y1="2080" x2="450" y2="2260" stroke="#cbd5e1" stroke-width="26" stroke-linecap="round" opacity="1" /><line x1="326.013587583296" y1="1816.2074550351363" x2="208.05606063821205" y2="1698.2499280900522" stroke="#6b7280" stroke-width="26" stroke-linecap="round" opacity="0.85" /><line x1="809.1119663372633" y1="2044.3372450022875" x2="326.013587583296" y2="1816.2074550351363" stroke="#6b7280" stroke-width="26" stroke-linecap="round" opacity="0.85" /><line x1="580.9237581344705" y1="2285.948288981715" x2="809.1119663372633" y2="2044.3372450022875" stroke="#6b7280" stroke-width="26" stroke-linecap="round" opacity="0.85" /><line x1="73.70577141615681" y1="1883.5119039643166" x2="193.98641241670404" y2="2003.7925449648637" stroke="#6b7280" stroke-width="26" stroke-linecap="round" opacity="0.85" /><line x1="193.98641241670404" y1="2003.7925449648637" x2="430.8880336627367" y2="2115.6627549977125" stroke="#6b7280" stroke-width="26" stroke-linecap="round" opacity="0.85" /><line x1="430.8880336627367" y1="2115.6627549977125" x2="378.9486551110361" y2="2170.657391111278" stroke="#6b7280" stroke-width="26" stroke-linecap="round" opacity="0.85" /><circle cx="190" cy="1830" r="10" fill="#fb923c" /><circle cx="350" cy="1970" r="10" fill="#fb923c" /><circle cx="565" cy="2140" r="10" fill="#fb923c" /><rect x="263" y="1903" width="34" height="34" fill="none" stroke="#facc15" stroke-width="2" /><line x1="270" y1="2260" x2="270" y2="2340" stroke="#cbd5e1" stroke-width="26" stroke-linecap="round" opacity="1" /><line x1="630" y1="2260" x2="630" y2="2420" stroke="#cbd5e1" stroke-width="26" stroke-linecap="round" opacity="1" /><line x1="180" y1="2300" x2="260" y2="2350" stroke="#cbd5e1" stroke-width="26" stroke-linecap="round" opacity="1" /><line x1="260" y1="2350" x2="450" y2="2420" stroke="#cbd5e1" stroke-width="26" stroke-linecap="round" opacity="1" /><line x1="450" y1="2420" x2="590" y2="2510" stroke="#cbd5e1" stroke-width="26" stroke-linecap="round" opacity="1" /><line x1="149.80724380792674" y1="2396.6957962476476" x2="216.6337746016093" y2="2438.462377993699" stroke="#6b7280" stroke-width="26" stroke-linecap="round" opacity="0.85" /><line x1="216.6337746016093" y1="2438.462377993699" x2="406.0414578632701" y2="2508.244156037469" stroke="#6b7280" stroke-width="26" stroke-linecap="round" opacity="0.85" /><line x1="406.0414578632701" y1="2508.244156037469" x2="482.3259709543977" y2="2557.28420016748" stroke="#6b7280" stroke-width="26" stroke-linecap="round" opacity="0.85" /><line x1="303.3662253983906" y1="2261.5376220063004" x2="249.4769177285443" y2="2227.8568047126464" stroke="#6b7280" stroke-width="26" stroke-linecap="round" opacity="0.85" /><line x1="493.9585421367299" y1="2331.755843962531" x2="303.3662253983906" y2="2261.5376220063004" stroke="#6b7280" stroke-width="26" stroke-linecap="round" opacity="0.85" /><line x1="580.7693455634876" y1="2387.5627890225896" x2="493.9585421367299" y2="2331.755843962531" stroke="#6b7280" stroke-width="26" stroke-linecap="round" opacity="0.85" /><rect x="543" y="2433" width="34" height="34" fill="none" stroke="#facc15" stroke-width="2" /><rect x="363" y="2423" width="34" height="34" fill="none" stroke="#facc15" stroke-width="2" /><line x1="450" y1="2420" x2="640" y2="2570" stroke="#cbd5e1" stroke-width="44" stroke-linecap="round" opacity="1" /><line x1="640" y1="2570" x2="720" y2="2680" stroke="#cbd5e1" stroke-width="44" stroke-linecap="round" opacity="1" /><line x1="660" y1="3060" x2="580" y2="3190" stroke="#cbd5e1" stroke-width="44" stroke-linecap="round" opacity="1" /><line x1="580" y1="3190" x2="485" y2="3280" stroke="#cbd5e1" stroke-width="44" stroke-linecap="round" opacity="1" /><line x1="428.25679322557335" y1="2534.0640998098474" x2="565.043260656548" y2="2642.053416202722" stroke="#6b7280" stroke-width="26" stroke-linecap="round" opacity="0.85" /><line x1="565.043260656548" y1="2642.053416202722" x2="619.5409236411374" y2="2716.9877028065325" stroke="#7dd3fc" stroke-width="26" stroke-linecap="round" opacity="0.9" /><line x1="619.5409236411374" y1="2716.9877028065325" x2="625.8034731648195" y2="2798.400846614399" stroke="#7dd3fc" stroke-width="26" stroke-linecap="round" opacity="0.9" /><line x1="625.8034731648195" y1="2798.400846614399" x2="590.7439815484247" y2="2912.344194367682" stroke="#6b7280" stroke-width="26" stroke-linecap="round" opacity="0.85" /><line x1="590.7439815484247" y1="2912.344194367682" x2="563.9361962792549" y2="3019.5753354443614" stroke="#6b7280" stroke-width="26" stroke-linecap="round" opacity="0.85" /><line x1="563.9361962792549" y1="3019.5753354443614" x2="499.35762432583715" y2="3124.5155148686654" stroke="#6b7280" stroke-width="26" stroke-linecap="round" opacity="0.85" /><line x1="499.35762432583715" y1="3124.5155148686654" x2="399.00472011077943" y2="3219.5866872829306" stroke="#6b7280" stroke-width="26" stroke-linecap="round" opacity="0.85" /><line x1="399.00472011077943" y1="3219.5866872829306" x2="389.5777467142454" y2="3241.134055046437" stroke="#6b7280" stroke-width="26" stroke-linecap="round" opacity="0.85" /><line x1="714.956739343452" y1="2497.946583797278" x2="532.7508141081544" y2="2354.09980071678" stroke="#6b7280" stroke-width="26" stroke-linecap="round" opacity="0.85" /><line x1="820.4590763588626" y1="2643.0122971934675" x2="714.956739343452" y2="2497.946583797278" stroke="#6b7280" stroke-width="26" stroke-linecap="round" opacity="0.85" /><line x1="834.1965268351805" y1="2821.599153385601" x2="820.4590763588626" y2="2643.0122971934675" stroke="#6b7280" stroke-width="26" stroke-linecap="round" opacity="0.85" /><line x1="789.2560184515753" y1="2967.655805632318" x2="834.1965268351805" y2="2821.599153385601" stroke="#6b7280" stroke-width="26" stroke-linecap="round" opacity="0.85" /><line x1="756.0638037207451" y1="3100.4246645556386" x2="789.2560184515753" y2="2967.655805632318" stroke="#6b7280" stroke-width="26" stroke-linecap="round" opacity="0.85" /><line x1="660.6423756741631" y1="3255.4844851313346" x2="756.0638037207451" y2="3100.4246645556386" stroke="#6b7280" stroke-width="26" stroke-linecap="round" opacity="0.85" /><line x1="570.9952798892207" y1="3340.4133127170694" x2="660.6423756741631" y2="3255.4844851313346" stroke="#6b7280" stroke-width="26" stroke-linecap="round" opacity="0.85" /><line x1="565.2065630526865" y1="3353.6446654862903" x2="570.9952798892207" y2="3340.4133127170694" stroke="#6b7280" stroke-width="26" stroke-linecap="round" opacity="0.85" /><circle cx="620" cy="2550" r="10" fill="#4ade80" /><text x="632" y="2554" fill="#bbf7d0" font-family="monospace" font-size="13">AERO</text><circle cx="700" cy="2680" r="10" fill="#4ade80" /><text x="712" y="2684" fill="#bbf7d0" font-family="monospace" font-size="13">FREEZE</text><circle cx="715" cy="2790" r="10" fill="#4ade80" /><text x="727" y="2794" fill="#bbf7d0" font-family="monospace" font-size="13">OIL</text><circle cx="330" cy="2400" r="10" fill="#4ade80" /><text x="342" y="2404" fill="#bbf7d0" font-family="monospace" font-size="13">SHOCK</text><line x1="650" y1="3060" x2="586.2" y2="3149.1" stroke="#eab308" stroke-width="12" stroke-linecap="round" opacity="1" /><text x="586.2" y="3163.1" fill="#facc15" font-family="monospace" font-size="13">BOOST</text><line x1="359.3521652089593" y1="2463.9631890615738" x2="318.8430060116506" y2="2634.1016576902707" stroke="#6b7280" stroke-width="26" stroke-linecap="round" opacity="0.85" /><line x1="318.8430060116506" y1="2634.1016576902707" x2="400.3416901357184" y2="2868.4103745469656" stroke="#6b7280" stroke-width="26" stroke-linecap="round" opacity="0.85" /><line x1="400.3416901357184" y1="2868.4103745469656" x2="372" y2="3095.1438956327133" stroke="#6b7280" stroke-width="26" stroke-linecap="round" opacity="0.85" /><line x1="372" y1="3095.1438956327133" x2="372" y2="3281.6633896332996" stroke="#6b7280" stroke-width="26" stroke-linecap="round" opacity="0.85" /><line x1="481.1569939883495" y1="2625.8983423097293" x2="513.9302964239312" y2="2488.2504720802863" stroke="#6b7280" stroke-width="26" stroke-linecap="round" opacity="0.85" /><line x1="504.5304379486549" y1="2693.096993695607" x2="481.1569939883495" y2="2625.8983423097293" stroke="#6b7280" stroke-width="26" stroke-linecap="round" opacity="0.85" /><line x1="528" y1="3104.8561043672867" x2="541.7797480581165" y2="2994.6181199023545" stroke="#6b7280" stroke-width="26" stroke-linecap="round" opacity="0.85" /><line x1="528" y1="3284.535974024956" x2="528" y2="3104.8561043672867" stroke="#6b7280" stroke-width="26" stroke-linecap="round" opacity="0.85" /><rect x="359" y="2681" width="112" height="38" fill="#b91c1c" opacity="0.85" /><text x="395" y="2688" fill="#fecaca" font-family="monospace" font-size="13">CRUMBLE</text><line x1="545" y1="2640" x2="565" y2="2760" stroke="#cbd5e1" stroke-width="26" stroke-linecap="round" opacity="1" /><line x1="565" y1="2760" x2="480" y2="2860" stroke="#cbd5e1" stroke-width="26" stroke-linecap="round" opacity="1" /><line x1="484.4359865392937" y1="2659.82995864455" x2="498.04660927665054" y2="2741.493695068691" stroke="#6b7280" stroke-width="26" stroke-linecap="round" opacity="0.85" /><line x1="498.04660927665054" y1="2741.493695068691" x2="438.36142270778447" y2="2811.711561620298" stroke="#6b7280" stroke-width="26" stroke-linecap="round" opacity="0.85" /><line x1="631.9533907233495" y1="2778.506304931309" x2="609.72165231033" y2="2645.115874453192" stroke="#6b7280" stroke-width="26" stroke-linecap="round" opacity="0.85" /><line x1="538.0175603773434" y1="2889.0190465148453" x2="631.9533907233495" y2="2778.506304931309" stroke="#6b7280" stroke-width="26" stroke-linecap="round" opacity="0.85" /><rect x="26" y="0" width="848" height="3660" fill="none" stroke="#f472b6" stroke-width="1" stroke-dasharray="10 8" /><text x="30" y="3646" fill="#f9a8d4" font-family="monospace" font-size="13">border x26..874 · height 3660 · sensor 3400</text></svg>
